<svg version="1.1" xmlns="http://www.w3.org/2000/svg" width="1024" height="1024">

<path d="M0 0 C8.03884328 5.64102387 14.72890323 12.96892567 16.85546875 22.74609375 C18.09932053 33.5923724 17.5400799 43.39376103 10.90234375 52.39453125 C6.31786014 57.86064632 1.52803206 62.06578291 -5.14453125 64.74609375 C-5.80453125 64.74609375 -6.46453125 64.74609375 -7.14453125 64.74609375 C-7.14453125 81.90609375 -7.14453125 99.06609375 -7.14453125 116.74609375 C-0.03132324 116.71467285 -0.03132324 116.71467285 7.22558594 116.68261719 C22.95150525 116.616127 38.67743035 116.57186608 54.40345383 116.53884506 C63.9314775 116.51830261 73.45936712 116.49034301 82.98730469 116.44433594 C91.30101281 116.40421142 99.61462375 116.37860067 107.92842603 116.36973977 C112.32224657 116.36456793 116.71578931 116.35259041 121.10951996 116.32317352 C159.14783184 116.07860123 190.36260538 121.44880905 218.54296875 149.12109375 C223.65461136 154.27467125 228.1161297 159.49268451 231.85546875 165.74609375 C232.5103125 166.83019531 233.16515625 167.91429687 233.83984375 169.03125 C237.81969262 175.89974418 240.81907208 182.87013066 243.23046875 190.43359375 C243.46902588 191.1805249 243.70758301 191.92745605 243.95336914 192.69702148 C247.74046092 205.30104325 248.11741528 217.45775043 247.98046875 230.49609375 C247.97041272 232.17577588 247.96129153 233.85546387 247.953125 235.53515625 C247.93133343 239.60561657 247.89695038 243.67578843 247.85546875 247.74609375 C248.80373535 247.73304199 249.75200195 247.71999023 250.72900391 247.70654297 C251.97987793 247.6963916 253.23075195 247.68624023 254.51953125 247.67578125 C255.75654785 247.66272949 256.99356445 247.64967773 258.26806641 247.63623047 C266.86909797 247.89963487 273.67854579 250.78648952 279.85546875 256.74609375 C287.11694018 264.77885296 285.54128048 275.95670343 285.44921875 286.03125 C285.44750551 288.01704333 285.44757549 290.00283892 285.44934082 291.9886322 C285.44769225 296.13855806 285.42907802 300.28794067 285.39746094 304.43774414 C285.35775926 309.74260035 285.35342178 315.04674704 285.36092377 320.35172367 C285.36400087 324.44826189 285.35184701 328.54464222 285.33479309 332.64114189 C285.32778971 334.59665371 285.32463531 336.55218342 285.32548523 338.5077076 C285.32367679 341.24512895 285.30220682 343.98171779 285.27539062 346.71899414 C285.27832123 347.517659 285.28125183 348.31632385 285.28427124 349.13919067 C285.17092029 356.68205759 283.22973497 363.18481094 277.85546875 368.74609375 C270.95132318 373.96381688 264.8346204 375.15048444 256.42578125 374.9140625 C255.18453491 374.89587463 255.18453491 374.89587463 253.91821289 374.87731934 C251.89706836 374.84594417 249.87619657 374.79775326 247.85546875 374.74609375 C247.86213058 375.33474716 247.86879242 375.92340057 247.87565613 376.52989197 C247.94284574 382.74472501 247.98760986 388.95945234 248.02026367 395.17456055 C248.03520373 397.48352256 248.05556317 399.79245694 248.08178711 402.10131836 C248.47116137 437.30533231 240.20663969 466.65114394 215.54296875 492.49609375 C195.19963844 512.12712258 168.42986815 522.08748232 140.42218018 522.00679016 C138.98794442 522.00981623 137.55371027 522.01370799 136.11947894 522.01838273 C132.20551512 522.02861294 128.2916434 522.02649368 124.3776722 522.02220213 C120.14576367 522.01972578 115.9138768 522.02876037 111.68197632 522.03623962 C103.40127787 522.04896393 95.12061188 522.05078311 86.83990529 522.04843936 C80.10545271 522.04665333 73.37100994 522.04841195 66.63655853 522.0526638 C65.67655405 522.05325899 64.71654958 522.05385418 63.72745405 522.05446741 C61.77692089 522.05567921 59.82638774 522.05689335 57.87585458 522.05810978 C39.59889817 522.0689768 21.32196023 522.06682693 3.04500279 522.06072494 C-13.65369208 522.0555578 -30.35232857 522.06680737 -47.05101189 522.08582316 C-64.21971648 522.10522345 -81.3883935 522.11345363 -98.55710912 522.1096999 C-108.18696466 522.10779102 -117.81677055 522.11024476 -127.44661713 522.12441444 C-135.64568547 522.13635724 -143.8446736 522.1377008 -152.0437431 522.12562428 C-156.22182974 522.1197556 -160.39976985 522.11858005 -164.57784653 522.13062668 C-168.41236212 522.14155361 -172.24661006 522.13830226 -176.08111349 522.12436499 C-178.10453141 522.12050403 -180.12796154 522.13120928 -182.15135074 522.14266187 C-211.6638939 521.97049092 -236.28846355 509.08035242 -256.79638672 488.4609375 C-268.75390744 476.00795018 -276.69368416 460.70597457 -281.51953125 444.24609375 C-281.75824951 443.44107422 -281.99696777 442.63605469 -282.24291992 441.80664062 C-286.44313603 426.4580028 -286.40928469 411.02241159 -286.26953125 395.24609375 C-286.25947126 393.24740037 -286.2503508 391.24870203 -286.2421875 389.25 C-286.2204365 384.4152392 -286.18607685 379.5807233 -286.14453125 374.74609375 C-287.37792236 374.76929688 -288.61131348 374.7925 -289.88208008 374.81640625 C-291.5177348 374.83517317 -293.15339611 374.85337238 -294.7890625 374.87109375 C-295.5999231 374.88785156 -296.41078369 374.90460938 -297.24621582 374.921875 C-305.09076988 374.98557095 -310.38144104 373.18441445 -316.2265625 367.84375 C-322.21172675 361.49289343 -323.44382627 355.54690182 -323.45092773 347.05371094 C-323.46341301 345.77438942 -323.46341301 345.77438942 -323.47615051 344.46922302 C-323.50016907 341.6604246 -323.50901321 338.85185886 -323.515625 336.04296875 C-323.52459841 334.0800978 -323.53372038 332.11722752 -323.54298401 330.15435791 C-323.55945508 326.04217877 -323.56717054 321.93008085 -323.57006836 317.81787109 C-323.57544626 312.5679216 -323.6131102 307.31874366 -323.65881252 302.06901169 C-323.68866735 298.01445786 -323.69579377 293.96008781 -323.69679451 289.90543365 C-323.70098105 287.9710665 -323.71335194 286.036698 -323.73431206 284.10243988 C-323.93449518 264.02947618 -323.93449518 264.02947618 -318.14453125 256.74609375 C-311.59214462 250.30565608 -304.53377356 247.59698997 -295.37854004 247.6472168 C-294.7044812 247.65664307 -294.03042236 247.66606934 -293.3359375 247.67578125 C-292.64278442 247.68085693 -291.94963135 247.68593262 -291.23547363 247.69116211 C-289.53844509 247.70432304 -287.8414734 247.72449703 -286.14453125 247.74609375 C-286.1602417 246.80515869 -286.17595215 245.86422363 -286.19213867 244.89477539 C-286.70372904 209.62957776 -286.70372904 209.62957776 -283.14453125 196.74609375 C-282.86246826 195.68261719 -282.86246826 195.68261719 -282.57470703 194.59765625 C-278.05470101 177.97036284 -269.76942093 163.47334366 -258.14453125 150.74609375 C-257.37625 149.89660156 -256.60796875 149.04710937 -255.81640625 148.171875 C-238.02802786 129.43669583 -212.1873967 117.81052298 -186.40567589 116.56554794 C-182.26274899 116.50182797 -178.12434773 116.49797071 -173.98120117 116.51904297 C-172.40294909 116.51960853 -170.82469648 116.51928769 -169.2464447 116.51815796 C-165.00350091 116.51758911 -160.76067248 116.52926678 -156.51775527 116.54330587 C-152.06818349 116.55589206 -147.61860844 116.55698991 -143.16902161 116.55935669 C-134.76167868 116.56554844 -126.35438837 116.58192775 -117.94706851 116.60205567 C-108.36775478 116.62448681 -98.7884384 116.63542617 -89.2091049 116.64544654 C-69.52087787 116.66629627 -49.8327229 116.70294337 -30.14453125 116.74609375 C-30.14453125 99.58609375 -30.14453125 82.42609375 -30.14453125 64.74609375 C-32.12453125 64.08609375 -34.10453125 63.42609375 -36.14453125 62.74609375 C-44.04534283 58.37543202 -50.00410696 51.20497853 -53.14453125 42.74609375 C-56.10196604 30.95605171 -54.10381385 20.9576442 -48.39453125 10.55859375 C-36.7076394 -4.05002106 -16.9688063 -9.92165177 0 0 Z M-244.265625 168.9765625 C-256.9187442 183.70153748 -263.30678118 202.99606043 -263.28497314 222.24934387 C-263.28794427 223.0797529 -263.29091539 223.91016192 -263.29397655 224.76573485 C-263.30261457 227.53499571 -263.30416766 230.30421309 -263.30566406 233.07348633 C-263.31029591 235.0649932 -263.31532106 237.05649918 -263.32070923 239.04800415 C-263.33380474 244.45151813 -263.34027328 249.8550197 -263.34471989 255.25854707 C-263.34765679 258.64125054 -263.35176288 262.02395067 -263.35622406 265.40665245 C-263.36989497 276.00956608 -263.37956215 286.61247201 -263.38342595 297.21539384 C-263.38789798 309.41785184 -263.40540785 321.62019735 -263.43442655 333.82262117 C-263.4561218 343.27689552 -263.46613449 352.73113842 -263.46746707 362.18543738 C-263.46851001 367.82091745 -263.47430753 373.45629172 -263.49228668 379.09174538 C-263.5089022 384.40319029 -263.51085821 389.71445142 -263.50214767 395.02591324 C-263.50138431 396.96149504 -263.50562597 398.89708728 -263.51560593 400.83264351 C-263.64959779 428.46993575 -258.40016862 454.74197419 -238.39453125 475.18359375 C-221.46936497 491.63625093 -199.61241255 499.41663565 -176.26855469 499.25402832 C-174.84721111 499.25865274 -173.42587233 499.26501588 -172.0045433 499.2729373 C-168.14930738 499.28944266 -164.29447386 499.28147141 -160.43923759 499.26899242 C-156.26191529 499.25986609 -152.08465768 499.27394888 -147.90734863 499.28491211 C-139.74393587 499.30262173 -131.5806709 499.29889124 -123.41725254 499.28726155 C-116.7777899 499.27819757 -110.13836843 499.27701599 -103.49890137 499.28135681 C-102.55096451 499.28196974 -101.60302764 499.28258268 -100.62636542 499.28321418 C-98.70015366 499.28449319 -96.7739419 499.28579004 -94.84773016 499.28710455 C-76.82058744 499.29848821 -58.79352633 499.28543148 -40.766397 499.26390308 C-25.32599467 499.24603412 -9.88571266 499.24913885 5.5546875 499.26757812 C23.52095899 499.28902405 41.48715911 499.29738978 59.45344162 499.28512907 C61.37224069 499.28385498 63.29103977 499.2825975 65.20983887 499.28135681 C66.1537216 499.28073971 67.09760434 499.28012261 68.07008958 499.27948681 C74.69522212 499.27604506 81.32030909 499.28183679 87.94543457 499.29127502 C96.02836933 499.30253786 104.11114888 499.29936543 112.19406605 499.27815205 C116.31158798 499.26769894 120.42885191 499.26342068 124.54637146 499.27674866 C128.32654666 499.28879888 132.10622833 499.28190606 135.88635969 499.26083845 C137.87797729 499.2543586 139.86963005 499.26719454 141.86120987 499.28106737 C164.52430542 499.0873422 184.74422007 490.06448536 201.1875 474.5703125 C217.16913587 457.65270967 225.02161757 436.09553094 224.99591064 412.94381714 C224.99888177 412.09339722 225.00185289 411.2429773 225.00491405 410.36678708 C225.0135396 407.53601845 225.01510406 404.70529241 225.01660156 401.87451172 C225.0212341 399.83695893 225.02625935 397.79940701 225.03164673 395.76185608 C225.04473097 390.23883898 225.05120794 384.71583402 225.05565739 379.19280386 C225.05859462 375.7372595 225.06270065 372.2817184 225.06716156 368.82617569 C225.08082619 358.0000885 225.09049783 347.17400884 225.09436345 336.34791362 C225.0988414 323.87771433 225.11638152 311.4076248 225.14536405 298.93745887 C225.16702483 289.2802562 225.17707008 279.62308432 225.17840457 269.96585763 C225.17944947 264.20644218 225.18529002 258.44713006 225.20322418 252.68774033 C225.21978095 247.26549093 225.22182361 241.8434217 225.21308517 236.42115593 C225.21231885 234.44035418 225.21660355 232.45954244 225.22654343 230.47876549 C225.35279056 203.73460566 218.34351938 181.98740557 199.546875 162.33203125 C182.25947611 145.81106877 159.69291752 139.24727884 136.26506042 139.3584137 C134.86250664 139.35422784 133.45995624 139.34874354 132.05741197 139.34209388 C128.24944896 139.32778435 124.44170503 139.33183794 120.63373077 139.3392607 C116.50884719 139.34402645 112.38400872 139.33145262 108.25914001 139.32124329 C100.19587775 139.30411591 92.13269363 139.30320267 84.06941792 139.30845619 C77.51004433 139.31251065 70.95069369 139.31103924 64.39132118 139.30570793 C63.45492772 139.30495951 62.51853426 139.30421109 61.55376524 139.30343999 C59.65099141 139.30190838 57.74821758 139.30037003 55.84544376 139.29882502 C38.03286336 139.28512177 20.22032698 139.29052222 2.4077476 139.30201023 C-13.85542948 139.31193917 -30.11849274 139.29900392 -46.38165227 139.27507604 C-63.11770954 139.25063965 -79.85371388 139.24108838 -96.58978862 139.24772877 C-105.97097789 139.25121106 -115.35207969 139.24905466 -124.73325539 139.23147774 C-132.71953201 139.2166988 -140.70565956 139.21619417 -148.69193343 139.23354865 C-152.7590711 139.24201465 -156.82594314 139.24431727 -160.89306641 139.22889709 C-194.30053369 139.11142961 -220.19534893 143.66509356 -244.265625 168.9765625 Z " fill="#00C11B" transform="translate(531.14453125,202.25390625)" data-index="2" style="opacity: 1;"></path>
<path d="M0 0 C0.79014496 0.00304138 1.58028992 0.00608276 2.39437866 0.00921631 C18.29432526 0.0996334 43.22777008 0.29027008 55.375 12.4375 C51.415 22.3375 47.455 32.2375 43.375 42.4375 C39.745 41.4475 36.115 40.4575 32.375 39.4375 C29.96401856 38.8710646 27.54796325 38.32526664 25.125 37.8125 C24.00609375 37.57273437 22.8871875 37.33296875 21.734375 37.0859375 C4.3212235 33.7247943 -14.39080324 34.50497683 -29.625 44.4375 C-41.21361418 53.17834393 -48.15010539 64.07791465 -50.625 78.4375 C-50.86897821 82.6224657 -50.85610922 86.80860747 -50.875 91 C-50.895625 92.11697266 -50.91625 93.23394531 -50.9375 94.38476562 C-51.00307192 108.52371146 -47.53658798 122.01437002 -37.6953125 132.55859375 C-27.30795503 141.98561062 -14.5061558 146.61240367 -0.625 146.625 C0.39400391 146.64336914 0.39400391 146.64336914 1.43359375 146.66210938 C8.38124136 146.68123134 14.2596809 145.53216448 21.375 144.4375 C21.375 133.5475 21.375 122.6575 21.375 111.4375 C12.465 111.4375 3.555 111.4375 -5.625 111.4375 C-5.625 100.5475 -5.625 89.6575 -5.625 78.4375 C15.495 78.4375 36.615 78.4375 58.375 78.4375 C58.375 107.8075 58.375 137.1775 58.375 167.4375 C42.19461704 174.37194984 42.19461704 174.37194984 35.5625 176.1875 C34.84384766 176.39084961 34.12519531 176.59419922 33.38476562 176.80371094 C5.29653391 184.65975761 -24.86931842 184.33726009 -51.03125 170.65625 C-68.94327766 160.25021488 -80.74983576 145.44947688 -88.625 126.4375 C-88.96402344 125.62539063 -89.30304688 124.81328125 -89.65234375 123.9765625 C-98.04740703 101.50619412 -95.83528004 71.61955571 -86.2890625 49.90625 C-83.81711113 44.75344996 -80.96080787 40.0721437 -77.625 35.4375 C-77.01914062 34.58542969 -76.41328125 33.73335938 -75.7890625 32.85546875 C-65.00357314 18.52617575 -48.91025878 8.06142237 -31.625 3.4375 C-30.65498047 3.17783447 -29.68496094 2.91816895 -28.68554688 2.65063477 C-19.04904978 0.31969287 -9.87133809 -0.08059928 0 0 Z " fill="#00C01B" transform="translate(420.625,396.5625)" data-index="3"></path>
<path d="M0 0 C-2.23811399 7.00406547 -4.87005265 13.77276643 -7.6875 20.5625 C-8.10322266 21.57119141 -8.51894531 22.57988281 -8.94726562 23.61914062 C-9.96215979 26.0805506 -10.97978253 28.54079283 -12 31 C-12.71720215 30.80229004 -13.4344043 30.60458008 -14.17333984 30.40087891 C-29.382304 26.10026866 -29.382304 26.10026866 -45 24 C-45.96164062 23.94714844 -46.92328125 23.89429688 -47.9140625 23.83984375 C-63.68533669 23.39855506 -78.05125802 26.93191932 -90.3125 37.125 C-101.69827851 48.09043677 -106.02661163 62.14902943 -106.41967773 77.59741211 C-106.51583573 93.93241576 -104.46846989 108.31642359 -92.875 120.75 C-80.4992067 132.31732439 -67.11050222 135.52191016 -50.6875 135.30078125 C-45.08390321 134.94121712 -39.5387212 133.9231202 -34 133 C-34 122.11 -34 111.22 -34 100 C-42.91 100 -51.82 100 -61 100 C-61 89.11 -61 78.22 -61 67 C-40.21 67 -19.42 67 2 67 C2 96.37 2 125.74 2 156 C-21.07840617 165.23136247 -21.07840617 165.23136247 -29.1875 166.9375 C-30.44143555 167.22850586 -30.44143555 167.22850586 -31.72070312 167.52539062 C-56.21958515 173.03525592 -84.98936493 172.1424802 -107.0390625 159.21875 C-127.18627587 146.36533792 -142.07650291 128.009467 -147.40844727 104.4050293 C-152.68298644 77.90485212 -149.82442342 49.01870114 -134.8125 26.1875 C-119.63167619 5.64722995 -99.37400727 -6.07551941 -74.234375 -10.69140625 C-50.1531023 -14.29352131 -21.46633002 -12.48422236 0 0 Z " fill="#00C01B" transform="translate(682,408)" data-index="4" style="opacity: 1;"></path>
<path d="M0 0 C2.12870652 1.41026807 3.83430527 3.01603689 5.67578125 4.78515625 C35.83124147 33.52153599 81.94258786 46.8323906 122.8984375 47.23828125 C124.13488007 47.25297203 124.13488007 47.25297203 125.39630127 47.26795959 C144.61114363 47.44902123 163.12904276 47.04839801 182 43 C183.00111816 42.78569336 184.00223633 42.57138672 185.03369141 42.35058594 C214.94766978 35.69873187 240.44386154 22.60096891 263.6953125 2.8125 C267.30952153 -0.029861 269.73271984 -1.38543931 274.375 -0.9375 C279.9936907 -0.15995466 282.9464095 2.29299435 286.375 6.8125 C287.71222351 11.49278229 287.50541358 15.54321969 285.9375 20.0625 C281.48090534 26.81927254 275.15773312 31.66571112 268.625 36.3125 C267.83826904 36.87300049 267.05153809 37.43350098 266.2409668 38.01098633 C238.23111322 57.70335662 206.84753782 69.18120637 173 74 C171.79013428 74.17732666 170.58026855 74.35465332 169.33374023 74.53735352 C157.53774215 76.15870545 145.83062868 76.35788413 133.9375 76.3125 C132.94554626 76.31067719 131.95359253 76.30885437 130.93157959 76.30697632 C116.07863487 76.26104616 101.62993198 75.7762441 87 73 C86.0728418 72.83371094 85.14568359 72.66742187 84.19042969 72.49609375 C47.01084515 65.70185495 8.84693246 50.4559366 -18 23 C-20.80219769 18.63620607 -20.65054466 14.02188745 -20 9 C-15.65502525 0.46522817 -9.1744302 -2.62557706 0 0 Z " fill="#00C11B" transform="translate(379,607)" data-index="5" style="opacity: 1;"></path>
</svg>
